<svg width="48" height="48" viewBox="0 0 48 48" fill="none" xmlns="http://www.w3.org/2000/svg">
  <!-- Background -->
  <rect width="48" height="48" rx="8" fill="url(#companyGradient)"/>
  
  <!-- Building Icon -->
  <g transform="translate(12, 8)">
    <!-- Main Building -->
    <rect x="0" y="8" width="24" height="24" fill="rgba(255,255,255,0.9)" rx="2"/>
    
    <!-- Building Details -->
    <rect x="3" y="12" width="3" height="3" fill="rgba(59,130,246,0.6)" rx="1"/>
    <rect x="7" y="12" width="3" height="3" fill="rgba(59,130,246,0.6)" rx="1"/>
    <rect x="14" y="12" width="3" height="3" fill="rgba(59,130,246,0.6)" rx="1"/>
    <rect x="18" y="12" width="3" height="3" fill="rgba(59,130,246,0.6)" rx="1"/>
    
    <rect x="3" y="17" width="3" height="3" fill="rgba(59,130,246,0.6)" rx="1"/>
    <rect x="7" y="17" width="3" height="3" fill="rgba(59,130,246,0.6)" rx="1"/>
    <rect x="14" y="17" width="3" height="3" fill="rgba(59,130,246,0.6)" rx="1"/>
    <rect x="18" y="17" width="3" height="3" fill="rgba(59,130,246,0.6)" rx="1"/>
    
    <rect x="3" y="22" width="3" height="3" fill="rgba(59,130,246,0.6)" rx="1"/>
    <rect x="7" y="22" width="3" height="3" fill="rgba(59,130,246,0.6)" rx="1"/>
    <rect x="14" y="22" width="3" height="3" fill="rgba(59,130,246,0.6)" rx="1"/>
    <rect x="18" y="22" width="3" height="3" fill="rgba(59,130,246,0.6)" rx="1"/>
    
    <!-- Door -->
    <rect x="10" y="22" width="4" height="10" fill="rgba(59,130,246,0.8)" rx="2"/>
    <circle cx="13" cy="27" r="0.5" fill="white"/>
    
    <!-- Top Section -->
    <rect x="6" y="0" width="12" height="12" fill="rgba(255,255,255,0.8)" rx="2"/>
    <rect x="8" y="3" width="2" height="2" fill="rgba(59,130,246,0.6)" rx="0.5"/>
    <rect x="11" y="3" width="2" height="2" fill="rgba(59,130,246,0.6)" rx="0.5"/>
    <rect x="14" y="3" width="2" height="2" fill="rgba(59,130,246,0.6)" rx="0.5"/>
    
    <rect x="8" y="6" width="2" height="2" fill="rgba(59,130,246,0.6)" rx="0.5"/>
    <rect x="11" y="6" width="2" height="2" fill="rgba(59,130,246,0.6)" rx="0.5"/>
    <rect x="14" y="6" width="2" height="2" fill="rgba(59,130,246,0.6)" rx="0.5"/>
  </g>
  
  <!-- Gradient Definition -->
  <defs>
    <linearGradient id="companyGradient" x1="0%" y1="0%" x2="100%" y2="100%">
      <stop offset="0%" style="stop-color:#3B82F6;stop-opacity:1" />
      <stop offset="100%" style="stop-color:#8B5CF6;stop-opacity:1" />
    </linearGradient>
  </defs>
</svg>
