<svg width="64" height="64" viewBox="0 0 64 64" fill="none" xmlns="http://www.w3.org/2000/svg">
  <!-- Git Logo -->
  <path d="M60.5 28.5L35.5 3.5C34.1 2.1 31.9 2.1 30.5 3.5L25 9L31 15C32.5 14.5 34.5 15 35.5 16C36.5 17 37 19 36.5 20.5L42 26C43.5 25.5 45.5 26 46.5 27C48 28.5 48 31 46.5 32.5C45 34 42.5 34 41 32.5C40 31.5 39.5 30 40 28.5L35 23.5V35.5C35.5 35.8 36 36.1 36.4 36.5C37.9 38 37.9 40.5 36.4 42C34.9 43.5 32.4 43.5 30.9 42C29.4 40.5 29.4 38 30.9 36.5C31.3 36.1 31.8 35.8 32.3 35.5V23.3C31.8 23 31.3 22.7 30.9 22.3C29.9 21.3 29.4 19.8 29.9 18.3L24 12.4L3.5 32.9C2.1 34.3 2.1 36.5 3.5 37.9L28.5 62.9C29.9 64.3 32.1 64.3 33.5 62.9L60.5 35.9C61.9 34.5 61.9 32.3 60.5 30.9V28.5Z" fill="#F05032"/>
</svg>
