<svg width="64" height="64" viewBox="0 0 64 64" fill="none" xmlns="http://www.w3.org/2000/svg">
  <!-- JavaScript Logo -->
  <rect width="64" height="64" rx="8" fill="#F7DF1E"/>
  <path d="M18 46C18 50 20.5 52 24.5 52C28 52 30 50.5 30 47V28H26V46.5C26 48 25.5 48.5 24.5 48.5C23.5 48.5 22.5 48 22.5 46H18Z" fill="#000"/>
  <path d="M32 51.5C36.5 51.5 39.5 49 39.5 45C39.5 40.5 36.5 39 33 37.5C31 36.5 30 36 30 34.5C30 33.5 30.5 32.5 32 32.5C33.5 32.5 34.5 33 35 34.5H38.5C38 30.5 35.5 28.5 32 28.5C28 28.5 25.5 31 25.5 34.5C25.5 38.5 28 40 31.5 41.5C33.5 42.5 34.5 43 34.5 44.5C34.5 45.5 34 46.5 32 46.5C30 46.5 29 45.5 28.5 44H25C25.5 48 28 51.5 32 51.5Z" fill="#000"/>
</svg>
