<svg width="64" height="64" viewBox="0 0 64 64" fill="none" xmlns="http://www.w3.org/2000/svg">
  <!-- PostgreSQL Logo -->
  <path d="M32 8C24 8 18 12 18 18V32C18 38 24 42 32 42C40 42 46 38 46 32V18C46 12 40 8 32 8Z" fill="#336791"/>
  <path d="M32 42C24 42 18 46 18 52C18 58 24 62 32 62C40 62 46 58 46 52C46 46 40 42 32 42Z" fill="#336791"/>
  <circle cx="28" cy="24" r="2" fill="#FFFFFF"/>
  <circle cx="36" cy="24" r="2" fill="#FFFFFF"/>
  <path d="M26 30H38C38 34 35 36 32 36C29 36 26 34 26 30Z" fill="#FFFFFF"/>
  <path d="M48 20C50 20 52 22 52 24C52 26 50 28 48 28C46 28 44 26 44 24C44 22 46 20 48 20Z" fill="#FFA500"/>
</svg>
