<svg width="64" height="64" viewBox="0 0 64 64" fill="none" xmlns="http://www.w3.org/2000/svg">
  <!-- Python Logo -->
  <path d="M32 4C24 4 18 8 18 14V24H32V26H14C8 26 4 30 4 36C4 42 8 46 14 46H18V40C18 34 22 30 28 30H36C40 30 44 26 44 22V14C44 8 38 4 32 4ZM28 10C29.1 10 30 10.9 30 12C30 13.1 29.1 14 28 14C26.9 14 26 13.1 26 12C26 10.9 26.9 10 28 10Z" fill="#3776AB"/>
  <path d="M32 60C40 60 46 56 46 50V40H32V38H50C56 38 60 34 60 28C60 22 56 18 50 18H46V24C46 30 42 34 36 34H28C24 34 20 38 20 42V50C20 56 26 60 32 60ZM36 54C34.9 54 34 53.1 34 52C34 50.9 34.9 50 36 50C37.1 50 38 50.9 38 52C38 53.1 37.1 54 36 54Z" fill="#FFD43B"/>
</svg>
