<svg width="64" height="64" viewBox="0 0 64 64" fill="none" xmlns="http://www.w3.org/2000/svg">
  <!-- Tailwind CSS Logo -->
  <path d="M32 8C24 8 19.2 12.8 17.6 22.4C20.8 17.6 24.8 15.2 29.6 15.2C32.16 15.2 34.24 16.32 36.48 18.56C39.84 21.92 43.84 26.4 51.2 26.4C59.2 26.4 64 21.6 65.6 12C62.4 16.8 58.4 19.2 53.6 19.2C51.04 19.2 48.96 18.08 46.72 15.84C43.36 12.48 39.36 8 32 8ZM17.6 32C9.6 32 4.8 36.8 3.2 46.4C6.4 41.6 10.4 39.2 15.2 39.2C17.76 39.2 19.84 40.32 22.08 42.56C25.44 45.92 29.44 50.4 36.8 50.4C44.8 50.4 49.6 45.6 51.2 36C48 40.8 44 43.2 39.2 43.2C36.64 43.2 34.56 42.08 32.32 39.84C28.96 36.48 24.96 32 17.6 32Z" fill="#06B6D4"/>
</svg>
